{"glyphs":{"0":{"ha":683,"x_min":0,"x_max":683,"o":"m 299 -71 q 142 -21 210 -71 q 37 124 74 29 q 0 347 0 218 q 8 475 0 408 q 69 754 29 635 q 194 948 110 874 q 419 1013 279 1022 q 615 889 547 1003 q 683 576 683 775 q 679 474 683 528 q 626 214 668 336 q 503 10 585 92 q 299 -71 421 -71 m 293 138 q 306 136 297 136 q 385 218 358 136 q 436 471 413 300 q 446 600 446 540 q 378 749 446 749 q 298 675 328 749 q 251 478 268 601 q 238 304 238 374 q 251 187 238 231 q 293 138 265 143 z "},"1":{"ha":372,"x_min":28,"x_max":372,"o":"m 28 -67 q 50 33 40 -28 q 64 135 60 93 l 111 667 l 114 697 q 117 731 115 711 q 118 774 118 750 q 108 842 118 817 q 71 874 97 868 l 81 932 q 216 971 157 950 q 315 1026 275 992 l 372 1026 l 346 731 l 294 153 q 285 3 285 56 q 289 -44 285 -28 l 28 -67 z "},"2":{"ha":615,"x_min":0,"x_max":615,"o":"m 614 653 q 321 161 586 393 l 390 164 q 441 164 403 164 q 515 169 479 164 q 575 188 550 175 l 535 -54 l 0 -72 l 28 150 q 251 382 146 267 q 382 572 357 497 q 396 651 396 614 q 363 747 396 710 q 281 785 331 785 q 201 757 240 785 q 136 685 163 729 l 4 838 q 138 965 61 917 q 332 1013 215 1013 q 487 965 422 1013 q 583 844 551 918 q 615 690 615 769 q 614 653 615 665 z "},"3":{"ha":649,"x_min":0,"x_max":649,"o":"m 647 721 q 496 476 629 564 q 604 258 604 392 q 566 99 604 175 q 454 -26 528 22 q 278 -74 381 -74 q 0 54 97 -74 l 139 217 q 258 129 178 129 q 349 165 315 129 q 382 250 382 200 q 342 346 382 304 q 228 390 301 388 l 243 563 q 334 588 296 565 q 392 644 372 611 q 413 711 413 678 q 388 772 413 747 q 319 796 364 796 q 242 772 279 796 q 182 713 206 749 l 54 863 q 375 1013 176 1013 q 530 974 468 1013 q 620 875 592 935 q 649 751 649 815 q 647 721 649 731 z "},"4":{"ha":665,"x_min":-3,"x_max":665,"o":"m 585 347 q 644 358 619 350 l 619 153 l 564 151 q 560 60 560 113 q 567 -44 560 -12 l 293 -67 q 317 31 306 -28 q 333 135 328 89 l 335 149 q 135 146 196 146 q 0 143 -3 143 l 31 338 l 394 968 l 576 989 l 665 999 q 648 929 654 971 q 635 818 642 888 q 625 731 629 756 l 585 347 m 360 342 l 396 610 q 269 340 343 500 l 360 342 z "},"5":{"ha":619,"x_min":0,"x_max":625,"o":"m 326 632 q 358 633 338 633 q 496 597 435 633 q 591 485 557 560 q 619 306 625 411 q 570 126 615 214 q 446 -17 525 39 q 264 -74 367 -74 q 0 57 99 -74 l 139 218 q 192 164 160 183 q 258 144 224 144 q 338 169 301 144 q 397 235 375 194 q 418 322 418 276 q 374 428 418 388 q 274 468 331 468 q 213 454 239 468 l 94 514 l 140 999 l 169 997 q 342 996 275 997 q 601 994 547 996 l 596 767 q 526 787 568 783 q 453 790 485 790 q 415 790 422 790 l 340 790 l 326 632 z "},"6":{"ha":671,"x_min":0,"x_max":671,"o":"m 422 626 q 574 535 522 613 q 626 349 626 458 q 584 151 626 249 q 464 -8 542 54 q 283 -71 386 -71 q 134 -24 199 -71 q 35 110 69 22 q 0 318 0 199 q 14 475 0 396 q 85 754 40 635 q 217 948 129 874 q 444 1013 304 1022 q 587 951 529 1007 q 671 799 644 896 l 469 692 q 406 778 460 778 q 275 600 321 778 q 389 629 329 629 q 422 626 400 629 m 297 122 q 354 158 329 122 q 393 249 379 194 q 407 356 407 303 q 393 440 407 407 q 353 475 379 472 q 232 271 242 486 q 251 162 235 201 q 297 122 267 122 z "},"7":{"ha":583,"x_min":0,"x_max":583,"o":"m 63 994 l 583 996 l 554 790 q 383 308 464 571 q 353 206 385 313 q 308 53 329 128 q 285 -40 286 -21 l 0 -71 q 146 299 38 14 l 172 369 q 317 786 274 650 l 204 783 q 105 776 163 782 q 18 760 47 769 l 63 994 z "},"8":{"ha":656,"x_min":-1,"x_max":656,"o":"m 538 440 q 603 344 581 400 q 625 228 625 289 q 588 76 625 149 q 477 -41 550 4 q 303 -86 404 -86 q 135 -47 204 -86 q 33 58 67 -7 q -1 200 -1 124 q 29 340 -1 272 q 115 453 60 407 q 51 551 72 494 q 31 669 31 607 q 68 831 31 754 q 178 955 106 907 q 349 1003 250 1003 q 517 960 449 1003 q 621 849 586 918 q 656 701 656 781 q 625 556 656 625 q 538 440 594 488 m 350 796 q 285 751 308 796 q 261 647 261 707 q 280 559 261 596 q 332 522 299 522 q 405 568 378 522 q 432 672 432 614 q 410 760 432 724 q 350 796 389 796 m 301 106 q 374 149 347 106 q 401 251 401 193 q 385 330 401 296 q 339 372 369 364 l 313 372 l 303 372 q 249 323 268 364 q 231 229 231 282 q 249 142 231 179 q 301 106 268 106 z "},"9":{"ha":663,"x_min":0,"x_max":663,"o":"m 392 1013 q 589 895 515 1003 q 663 608 663 788 q 651 467 663 547 q 585 188 626 307 q 457 -6 543 68 q 231 -71 371 -81 q 87 -10 146 -65 q 0 143 28 46 l 171 267 q 199 186 176 221 q 258 151 222 151 q 393 344 347 151 q 278 313 338 313 q 246 315 268 313 q 85 408 139 329 q 31 613 31 488 q 33 675 31 654 q 84 851 43 771 q 203 976 125 931 q 392 1013 281 1021 m 313 467 q 400 517 372 461 q 429 675 428 574 q 372 804 419 796 q 313 778 339 810 q 272 692 286 746 q 257 586 257 639 q 271 503 257 536 q 313 467 285 469 z "}," ":{"ha":278,"x_min":0,"x_max":0,"o":""},"A":{"ha":697,"x_min":0,"x_max":697,"o":"m 424 -64 q 433 8 429 -42 q 438 106 438 57 l 436 147 l 303 147 q 271 -49 267 -18 l 0 -68 q 44 46 10 -50 q 89 178 78 142 l 231 664 q 278 840 254 746 q 307 958 303 933 l 576 996 q 584 848 575 958 q 603 664 593 738 q 624 494 615 567 q 639 367 632 421 q 665 158 654 229 q 697 -14 675 88 l 424 -64 m 338 314 l 429 314 l 411 661 l 338 314 z "},"B":{"ha":693,"x_min":0,"x_max":692,"o":"m 458 281 q 594 226 547 268 q 640 126 640 185 q 594 11 640 68 q 461 -85 549 -46 q 253 -132 374 -125 l 0 -153 q 24 -49 13 -111 q 38 49 35 13 l 81 633 q 90 854 90 769 q 81 960 90 935 l 106 963 q 250 986 158 975 q 401 997 342 997 q 561 953 496 997 q 659 834 626 908 q 692 672 692 760 q 631 439 692 549 q 458 281 569 329 m 289 374 q 432 488 381 414 q 483 635 483 561 q 441 739 483 699 q 318 778 399 779 q 314 721 315 732 l 289 374 m 267 63 q 381 88 339 69 q 422 128 422 107 q 397 153 422 143 q 325 163 372 163 q 274 160 313 163 l 267 63 z "},"C":{"ha":626,"x_min":0,"x_max":654,"o":"m 289 -69 q 76 48 153 -69 q 0 376 0 165 q 3 454 0 401 q 60 718 11 594 q 194 917 108 842 q 393 993 279 993 q 567 929 503 993 q 654 783 632 865 l 496 644 q 463 716 489 688 q 411 749 438 744 q 397 750 407 750 q 299 669 338 750 q 246 457 261 588 q 240 357 240 408 q 259 220 240 272 q 313 157 278 168 q 338 153 324 153 q 390 164 363 153 q 443 197 418 175 l 519 54 q 430 -33 488 4 q 289 -69 372 -69 z "},"D":{"ha":714,"x_min":0,"x_max":714,"o":"m 419 993 q 639 852 564 974 q 714 561 714 731 q 660 279 714 417 q 503 51 606 142 q 261 -47 400 -39 l 8 -69 q 34 38 26 -19 q 49 176 42 96 l 89 660 q 92 701 90 676 q 93 738 93 725 l 0 721 l 31 954 q 222 984 142 972 q 375 996 301 996 q 419 993 394 996 m 276 167 q 383 234 336 175 q 457 378 431 293 q 483 547 483 464 q 452 696 483 636 q 357 761 421 756 q 326 763 347 763 l 276 167 z "},"E":{"ha":611,"x_min":0,"x_max":611,"o":"m 314 756 l 300 601 q 493 622 443 608 l 474 400 q 383 406 451 406 q 282 403 340 406 l 264 189 l 396 196 q 581 232 526 204 l 560 -18 q 210 -43 335 -32 q 0 -67 86 -54 q 24 24 13 -40 q 39 135 35 89 l 82 647 q 85 711 85 686 l 86 744 l 10 740 l 36 968 l 611 994 l 586 760 q 531 767 567 767 q 472 764 514 767 q 425 761 442 761 l 314 756 z "},"F":{"ha":583,"x_min":0,"x_max":611,"o":"m 36 968 l 611 994 l 586 760 q 531 767 567 767 q 472 764 514 767 q 425 761 442 761 l 313 756 q 299 588 311 724 l 335 590 q 493 608 463 600 l 474 386 q 383 392 451 392 q 282 389 340 392 l 261 150 q 256 43 256 92 q 268 -49 256 -24 l 0 -69 q 22 6 15 -39 q 32 87 29 51 q 36 132 35 122 l 85 744 l 10 740 l 36 968 z "},"G":{"ha":638,"x_min":0,"x_max":665,"o":"m 299 485 l 633 485 l 618 318 q 590 183 613 256 q 542 69 567 110 q 435 -33 499 1 q 299 -68 372 -68 q 142 -17 210 -68 q 38 130 75 33 q 0 360 0 226 q 4 449 0 403 q 70 729 18 604 q 212 928 122 854 q 422 1001 301 1001 q 591 941 536 1001 q 665 803 646 881 l 506 658 q 473 730 499 701 q 421 763 447 758 q 407 764 415 764 q 307 681 346 764 q 250 451 268 599 q 239 308 239 367 q 308 136 239 149 q 360 162 338 132 q 396 239 383 192 q 407 318 407 281 l 329 318 q 281 308 296 318 l 299 485 z "},"H":{"ha":718,"x_min":0,"x_max":718,"o":"m 631 167 q 628 100 628 131 q 638 -33 628 8 l 367 -69 q 391 45 379 -21 q 406 149 403 111 l 422 356 l 278 347 l 261 150 q 257 71 257 115 q 275 -44 257 -8 l 0 -69 q 22 30 13 -31 q 36 132 32 90 l 79 667 q 86 815 86 740 q 65 979 86 929 l 363 999 q 308 731 321 883 l 294 554 l 440 563 l 449 667 q 456 839 456 746 q 442 979 456 951 l 718 999 q 678 731 689 881 l 631 167 z "},"I":{"ha":367,"x_min":0,"x_max":367,"o":"m 0 -67 q 22 33 13 -28 q 36 135 32 93 l 83 667 q 94 876 94 786 q 86 971 94 947 l 367 999 q 324 731 343 935 l 272 153 q 267 33 267 86 q 272 -44 267 -24 l 0 -67 z "},"J":{"ha":614,"x_min":0,"x_max":614,"o":"m 147 254 q 189 170 165 200 q 254 140 213 140 q 311 195 292 140 q 338 342 331 250 q 353 611 346 435 l 354 653 q 356 743 356 681 q 339 957 356 883 l 614 999 q 597 886 601 944 q 590 750 592 828 q 589 717 589 739 q 558 288 581 454 q 463 31 538 128 q 257 -67 389 -67 q 106 -19 172 -67 q 0 110 40 28 l 147 254 z "},"K":{"ha":750,"x_min":0,"x_max":750,"o":"m 557 267 q 628 156 578 229 q 704 53 679 82 l 494 -101 l 456 -26 q 383 113 411 63 l 279 301 l 267 153 q 264 78 264 111 q 272 -44 264 -11 l 0 -67 q 22 33 13 -28 q 36 135 32 93 l 83 667 q 94 876 94 786 q 86 971 94 947 l 367 999 q 338 881 351 957 q 318 731 325 806 l 303 554 q 421 672 371 599 q 504 972 504 792 l 750 929 q 703 724 738 819 q 600 538 669 629 q 469 408 550 471 l 557 267 z "},"L":{"ha":553,"x_min":0,"x_max":553,"o":"m 0 -72 q 24 19 13 -46 q 39 129 35 83 q 68 471 61 376 q 90 864 90 763 q 82 967 90 932 l 361 999 q 315 685 339 911 q 276 183 292 458 l 368 190 q 553 226 499 199 l 517 -42 q 188 -55 297 -49 q 0 -72 79 -61 z "},"M":{"ha":889,"x_min":0,"x_max":888,"o":"m 478 39 l 390 39 l 333 501 q 310 111 310 206 q 315 17 310 56 q 332 -57 321 -21 l 0 -69 q 49 73 24 -31 q 89 351 74 176 q 99 450 94 419 q 113 616 107 531 q 119 765 119 701 q 94 950 119 890 l 378 999 q 402 778 385 871 q 447 589 419 685 q 471 490 465 524 q 488 552 479 524 q 504 601 497 581 q 558 776 535 694 q 593 946 581 858 l 888 986 q 855 749 871 908 q 829 446 839 590 q 818 157 818 299 q 835 -39 818 7 l 547 -69 q 583 158 572 38 q 601 438 594 279 q 607 533 604 468 l 478 39 z "},"N":{"ha":729,"x_min":0,"x_max":729,"o":"m 0 -69 q 35 138 17 -12 q 68 456 54 288 q 81 743 81 601 q 64 939 81 893 l 318 990 q 360 801 336 893 q 418 596 383 710 q 460 443 454 464 l 474 633 q 478 735 478 682 q 453 946 478 847 l 729 983 q 671 531 703 885 q 639 -8 639 178 q 640 -69 639 -53 l 449 -97 l 289 442 q 285 176 285 282 q 299 -43 285 17 l 0 -69 z "},"O":{"ha":725,"x_min":0,"x_max":725,"o":"m 413 1013 q 644 895 563 1013 q 725 569 725 778 q 721 474 725 524 q 659 210 710 338 q 515 1 608 82 q 292 -71 422 -79 q 141 -12 207 -65 q 38 135 75 40 q 0 356 0 231 q 8 475 0 413 q 71 690 24 594 l 35 744 q 120 878 63 817 q 255 976 178 939 q 413 1013 332 1013 m 478 471 q 486 572 486 528 q 466 695 486 650 q 414 749 446 740 q 386 753 399 753 q 297 701 339 753 l 331 660 q 265 529 290 626 q 240 329 240 432 q 257 194 240 249 q 307 136 274 140 q 417 228 376 126 q 478 471 458 329 z "},"P":{"ha":696,"x_min":0,"x_max":696,"o":"m 271 147 q 268 82 268 111 q 278 -50 268 -8 l 4 -72 q 26 27 17 -33 q 40 129 36 88 l 85 675 l 90 750 q 0 736 17 740 l 31 969 q 201 995 63 979 q 404 1010 340 1011 q 565 967 500 1007 q 663 865 631 928 q 696 725 696 801 q 647 534 696 629 q 503 368 597 439 q 281 274 410 297 l 271 147 m 299 483 q 414 556 369 500 q 458 672 458 613 q 424 753 458 722 q 322 779 390 783 l 319 739 l 299 483 z "},"Q":{"ha":738,"x_min":0,"x_max":738,"o":"m 446 1013 q 661 893 585 1013 q 738 568 738 774 q 733 474 738 524 q 694 272 725 372 q 611 94 663 172 l 663 33 l 531 -85 l 493 -24 q 325 -71 418 -71 q 160 -18 233 -71 q 43 133 86 35 q 0 364 0 232 q 7 475 0 426 q 446 1013 78 1013 m 415 357 q 451 299 426 338 q 490 471 478 375 q 499 574 499 529 q 478 697 499 653 q 426 749 458 742 q 406 751 413 751 q 304 672 343 751 q 250 478 265 593 q 242 360 242 414 q 261 224 242 276 q 314 161 281 172 q 335 157 325 157 q 358 163 342 157 q 296 239 321 211 l 415 357 z "},"R":{"ha":715,"x_min":0,"x_max":715,"o":"m 571 222 q 647 99 601 168 q 715 11 692 31 l 503 -108 q 478 -60 499 -103 q 447 1 468 -42 q 406 74 425 43 l 285 274 l 282 274 l 272 150 q 271 86 271 132 q 279 -47 271 -12 l 6 -69 q 28 30 18 -31 q 42 132 38 90 l 85 675 l 90 750 q 0 736 17 740 l 31 969 q 191 994 61 979 q 392 1010 321 1010 q 567 969 494 1010 q 678 860 640 928 q 715 710 715 792 q 658 509 715 607 q 493 347 600 411 l 571 222 m 299 483 q 431 549 385 499 q 478 657 478 599 q 437 747 478 711 q 322 779 396 783 l 319 739 l 299 483 z "},"S":{"ha":679,"x_min":0,"x_max":707,"o":"m 103 233 q 178 156 133 192 q 263 121 224 121 q 326 138 297 121 q 367 194 354 156 q 371 224 371 207 q 257 438 371 307 q 160 569 193 511 q 126 701 126 628 q 142 799 126 751 q 251 951 169 892 q 454 1010 333 1010 q 617 958 550 1010 q 707 835 683 906 l 561 696 q 521 767 554 736 q 449 799 488 799 q 388 776 415 799 q 360 715 360 754 q 381 660 360 693 q 443 576 403 628 q 517 476 499 506 q 600 226 600 344 q 578 107 600 167 q 458 -33 544 22 q 264 -87 372 -87 q 103 -46 174 -87 q 0 53 33 -4 l 103 233 z "},"T":{"ha":624,"x_min":0,"x_max":624,"o":"m 456 986 q 556 992 499 988 q 624 1001 613 997 l 596 754 q 500 764 567 764 q 436 761 478 764 l 424 760 l 419 715 l 372 150 q 371 100 371 135 q 374 20 371 61 q 382 -42 378 -21 l 111 -69 q 133 26 124 -35 q 147 132 143 88 l 190 651 l 196 742 l 181 740 l 147 738 q 0 719 24 728 l 35 974 q 131 975 54 972 q 200 978 178 978 l 456 986 z "},"U":{"ha":660,"x_min":0,"x_max":660,"o":"m 660 999 q 638 883 644 939 q 621 731 631 828 l 581 281 q 529 97 571 178 q 417 -28 488 17 q 256 -74 347 -74 q 63 6 126 -74 q 0 236 0 85 q 1 281 0 265 l 26 731 q 35 894 35 850 q 31 981 35 935 l 289 1000 q 268 902 275 968 q 256 733 261 836 l 251 667 q 236 336 236 464 q 276 132 236 133 q 330 181 311 129 q 358 320 349 233 q 376 567 367 407 l 383 667 q 393 885 393 819 q 389 971 393 938 l 660 999 z "},"V":{"ha":707,"x_min":0,"x_max":707,"o":"m 707 996 q 658 879 690 967 q 614 754 625 792 l 468 264 l 451 208 q 381 -39 397 36 l 115 -69 q 89 217 118 -19 l 83 264 l 40 658 q 17 859 28 778 q 0 954 7 940 l 275 1001 q 267 803 267 949 q 274 450 267 669 l 278 246 l 299 338 q 397 781 364 626 q 425 967 429 935 l 707 996 z "},"W":{"ha":972,"x_min":0,"x_max":1018,"o":"m 438 819 l 540 819 l 596 347 q 614 465 611 449 q 676 908 651 721 q 697 1165 700 1096 l 1018 1193 q 960 985 1007 1176 q 885 651 913 793 q 810 261 839 431 q 774 -62 782 92 l 539 -69 l 453 376 l 339 -207 l 83 -146 q 94 69 94 -94 q 88 331 94 192 q 71 560 81 471 q 39 797 58 688 q 0 951 19 907 l 332 999 q 319 849 322 928 q 317 629 317 771 l 318 439 q 317 338 318 369 l 438 819 z "},"X":{"ha":824,"x_min":0,"x_max":824,"o":"m 536 468 q 658 221 613 306 q 760 50 704 136 l 515 -71 q 407 214 500 10 l 385 172 l 367 138 q 271 -69 288 -15 l 0 -71 q 114 114 58 6 l 289 457 l 163 715 l 147 747 q 107 828 129 785 q 65 896 85 871 l 308 1014 q 329 937 310 990 q 371 833 349 883 l 422 718 q 554 999 539 947 l 824 999 q 686 758 765 913 l 536 468 z "},"Y":{"ha":626,"x_min":0,"x_max":626,"o":"m 626 999 q 610 905 615 954 q 601 778 606 856 l 597 703 l 564 267 q 473 4 551 101 q 243 -93 394 -93 q 104 -49 168 -93 q 0 67 40 -4 l 138 192 q 188 119 151 153 q 258 85 225 85 q 326 112 304 85 q 354 196 347 139 q 279 179 319 179 q 79 286 133 179 q 25 596 25 393 q 31 771 25 651 q 36 921 36 882 q 35 967 36 954 l 303 999 q 283 881 293 960 q 264 726 272 801 l 261 699 q 255 625 260 686 q 250 510 250 564 q 261 410 250 446 q 299 374 272 374 q 344 415 332 374 q 360 535 356 457 q 363 639 360 567 q 367 804 367 713 q 361 958 367 904 l 626 999 z "},"Z":{"ha":661,"x_min":0,"x_max":661,"o":"m 661 996 l 632 793 l 283 140 l 419 147 l 450 149 q 619 171 575 151 l 588 -58 l 0 -75 l 28 125 l 26 125 l 28 128 l 381 779 l 258 772 l 222 771 q 121 765 161 769 q 56 749 81 761 l 88 978 l 661 996 z "},"":{"ha":728,"x_min":-3,"x_max":728,"o":"m 315 -100 q 73 40 149 -100 q -3 399 -3 179 q 11 604 -3 507 q 85 866 29 743 q 230 1065 140 989 q 436 1142 319 1142 q 651 1022 575 1142 q 728 697 728 903 q 724 603 728 653 q 668 290 710 447 q 539 16 626 132 q 315 -100 451 -100 m 310 108 q 397 190 358 104 q 458 405 436 275 q 479 654 479 535 q 463 815 479 753 q 417 878 447 876 q 326 801 365 882 q 267 595 288 719 q 246 350 246 471 q 263 178 246 246 q 310 108 279 111 z "},"a":{"ha":586,"x_min":0,"x_max":586,"o":"m 339 783 q 525 707 464 783 q 586 494 586 631 q 583 426 586 450 l 561 194 q 547 -11 547 50 q 549 -46 547 -36 l 301 -81 q 313 -33 301 -79 q 201 -62 263 -62 q 156 -58 179 -62 q 41 22 82 -43 q 0 181 0 86 q 15 297 0 233 q 108 464 39 397 q 264 531 176 531 q 299 528 276 531 q 367 506 340 521 q 357 568 367 547 q 322 597 347 589 q 296 601 307 601 q 235 581 264 601 q 188 535 207 561 l 90 676 q 205 753 138 722 q 339 783 272 783 m 243 121 q 261 118 257 118 q 343 219 317 118 q 354 299 354 268 q 341 356 354 336 q 307 376 328 376 q 252 341 275 376 q 219 251 229 306 q 214 194 214 225 q 243 121 214 129 z "},"b":{"ha":660,"x_min":0,"x_max":660,"o":"m 440 783 q 608 692 556 783 q 660 458 660 601 q 647 304 660 382 q 593 137 633 214 q 488 13 553 60 q 340 -35 424 -35 q 244 -10 286 -35 l 242 -44 l 0 -69 q 19 3 13 -44 q 29 90 26 51 q 33 140 32 129 l 90 779 q 97 914 97 853 q 76 1067 97 1011 l 344 1111 l 321 843 l 311 739 q 440 783 371 783 m 431 342 q 443 475 443 422 q 428 577 443 539 q 378 615 413 615 q 319 561 343 615 q 283 418 294 507 l 269 272 q 277 172 267 207 q 317 138 288 138 q 386 195 356 138 q 431 342 417 253 z "},"c":{"ha":553,"x_min":0,"x_max":581,"o":"m 278 -68 q 137 -26 200 -68 q 37 99 74 17 q 0 293 0 181 q 4 367 0 329 q 68 597 17 500 q 201 741 119 693 q 381 783 282 789 q 510 727 461 779 q 581 611 560 675 l 440 496 q 410 558 433 533 q 364 583 388 583 q 276 522 307 583 q 236 368 246 460 q 232 297 232 331 q 250 183 232 225 q 301 132 268 140 q 325 129 318 129 q 417 178 375 129 l 486 35 q 402 -35 463 -1 q 278 -68 342 -68 z "},"d":{"ha":672,"x_min":0,"x_max":672,"o":"m 672 1111 l 649 843 l 588 158 q 582 33 582 92 q 588 -44 582 -24 l 329 -69 q 344 -3 338 -50 q 217 -49 282 -49 q 51 46 103 -49 q 0 288 0 140 q 13 444 0 368 q 67 612 26 535 q 172 736 107 689 q 319 783 236 783 q 417 757 376 783 l 418 779 q 425 914 425 853 q 404 1067 425 1011 l 672 1111 m 282 133 q 344 194 319 133 q 379 351 369 256 q 390 507 390 465 q 380 584 390 557 q 343 611 369 611 q 274 553 304 611 q 229 407 243 496 q 217 274 217 325 q 282 133 217 133 z "},"e":{"ha":563,"x_min":0,"x_max":563,"o":"m 231 368 l 231 363 q 226 278 226 315 q 244 176 226 210 q 301 133 261 142 q 318 132 307 132 q 378 149 349 132 q 428 196 408 167 l 497 43 q 402 -41 460 -8 q 267 -74 344 -74 q 72 17 144 -74 q 0 278 0 108 q 4 361 0 318 q 65 597 17 499 q 184 747 113 696 q 339 797 256 797 q 503 728 444 797 q 563 515 563 660 q 550 372 563 451 l 374 372 l 231 368 m 336 608 q 256 506 285 608 l 367 508 q 368 544 368 522 q 336 608 368 608 z "},"f":{"ha":418,"x_min":0,"x_max":613,"o":"m 385 1110 q 499 1079 449 1110 q 578 1010 549 1049 q 613 954 608 972 l 493 831 q 456 888 483 865 q 401 911 428 911 q 333 867 356 910 q 301 750 311 825 l 418 750 l 399 583 l 289 583 l 258 158 q 254 47 254 71 q 261 -44 254 -17 l 3 -69 q 21 20 13 -47 q 32 140 29 88 l 63 583 l 0 583 l 18 750 l 79 750 q 385 1110 135 1110 z "},"g":{"ha":647,"x_min":0,"x_max":647,"o":"m 410 783 l 647 799 q 630 699 638 776 q 618 556 622 622 l 583 78 q 263 -396 549 -396 q 154 -365 204 -396 q 73 -296 104 -335 q 38 -240 42 -257 l 157 -94 q 203 -164 167 -131 q 265 -197 239 -197 q 325 -144 306 -197 q 351 1 344 -90 q 236 -35 300 -35 q 203 -32 225 -35 q 49 86 97 -15 q 0 335 0 188 q 6 444 0 396 q 51 612 15 535 q 150 736 88 689 q 296 783 213 783 q 407 749 360 783 l 410 783 m 292 149 q 347 192 325 149 q 375 311 368 235 l 378 347 l 378 351 q 382 467 382 413 q 370 574 382 536 q 328 611 358 611 q 262 553 289 611 q 225 407 235 496 q 219 308 219 363 q 292 149 219 149 z "},"h":{"ha":649,"x_min":0,"x_max":649,"o":"m 629 167 q 628 101 628 149 q 636 -33 628 3 l 365 -69 q 390 45 378 -21 q 404 149 401 111 l 424 390 q 426 454 426 438 q 411 552 426 522 q 365 582 396 582 q 315 549 336 582 q 285 451 294 515 l 258 158 q 253 33 253 92 q 258 -44 253 -24 l 0 -69 q 32 140 17 -32 l 89 779 q 96 914 96 853 q 75 1067 96 1011 l 343 1111 l 319 843 l 310 738 q 486 783 393 792 q 601 710 554 778 q 649 500 649 643 q 647 443 649 463 l 629 167 z "},"i":{"ha":319,"x_min":0,"x_max":319,"o":"m 189 863 q 111 895 142 863 q 81 976 81 928 q 119 1072 81 1032 q 211 1111 158 1111 q 288 1078 257 1111 q 319 999 319 1046 q 280 903 319 943 q 189 863 240 863 m 0 -69 q 32 140 17 -32 l 60 451 q 67 586 67 525 q 46 739 67 683 l 314 783 l 290 515 l 258 158 q 253 33 253 92 q 258 -44 253 -24 l 0 -69 z "},"j":{"ha":313,"x_min":-292,"x_max":313,"o":"m 182 863 q 104 895 135 863 q 74 976 74 928 q 113 1072 74 1032 q 204 1111 151 1111 q 281 1078 250 1111 q 313 999 313 1046 q 273 903 313 943 q 182 863 233 863 m -172 -94 q -127 -163 -162 -129 q -65 -197 -92 -197 q -4 -146 -24 -197 q 22 -4 15 -94 l 53 451 q 58 586 58 532 q 39 739 58 685 l 307 783 l 283 515 l 254 78 q 156 -281 240 -167 q -67 -396 72 -396 q -175 -365 -125 -396 q -256 -296 -225 -335 q -292 -240 -287 -257 l -172 -94 z "},"k":{"ha":676,"x_min":0,"x_max":676,"o":"m 676 722 q 592 480 649 581 q 440 301 536 379 q 549 140 506 201 q 640 22 592 78 l 431 -132 q 396 -65 414 -106 q 348 30 374 -18 q 260 176 322 78 l 258 158 q 253 33 253 92 q 258 -44 253 -24 l 0 -69 q 32 140 17 -32 l 89 779 q 96 914 96 853 q 75 1067 96 1011 l 343 1111 l 319 843 l 285 456 q 397 592 351 496 q 446 785 442 689 l 676 722 z "},"l":{"ha":343,"x_min":0,"x_max":343,"o":"m 0 -69 q 32 140 17 -32 l 89 779 q 96 914 96 853 q 75 1067 96 1011 l 343 1111 l 319 843 l 258 158 q 254 53 254 115 q 261 -44 254 -22 l 0 -69 z "},"m":{"ha":1011,"x_min":0,"x_max":1011,"o":"m 992 167 q 990 101 990 149 q 999 -33 990 3 l 728 -69 q 752 45 740 -21 q 767 149 764 111 l 786 390 q 789 454 789 438 q 774 552 789 522 q 728 582 758 582 q 679 549 700 582 q 649 457 658 517 q 647 443 647 453 l 629 167 q 628 101 628 149 q 636 -33 628 3 l 365 -69 q 390 45 378 -21 q 404 149 401 111 l 424 390 q 426 454 426 438 q 411 552 426 522 q 365 582 396 582 q 315 549 336 582 q 285 451 294 515 l 258 158 q 253 33 253 92 q 258 -44 253 -24 l 0 -69 q 32 140 17 -32 l 60 451 q 72 639 72 583 q 60 744 72 703 l 314 789 l 310 738 q 463 785 383 785 q 548 763 508 785 q 614 689 588 742 q 722 763 663 738 q 849 783 782 789 q 964 710 917 778 q 1011 500 1011 643 q 1010 443 1011 463 l 992 167 z "},"n":{"ha":649,"x_min":0,"x_max":649,"o":"m 629 167 q 628 101 628 149 q 636 -33 628 3 l 365 -69 q 390 45 378 -21 q 404 149 401 111 l 424 390 q 426 454 426 438 q 411 552 426 522 q 365 582 396 582 q 315 549 336 582 q 285 451 294 515 l 258 158 q 253 33 253 92 q 258 -44 253 -24 l 0 -69 q 32 140 17 -32 l 60 451 q 72 639 72 583 q 60 744 72 703 l 314 789 l 310 738 q 486 783 393 792 q 601 710 554 778 q 649 500 649 643 q 647 443 649 463 l 629 167 z "},"o":{"ha":642,"x_min":0,"x_max":642,"o":"m 1 367 q 58 606 10 506 q 185 756 106 706 q 363 800 264 806 q 501 747 438 796 q 603 608 565 699 q 642 396 642 518 q 640 347 642 364 q 584 115 632 213 q 460 -35 536 17 q 293 -86 385 -86 q 140 -40 206 -86 q 37 95 74 6 q 0 311 0 185 q 1 367 0 347 m 226 333 q 244 177 226 249 q 299 106 263 106 q 349 142 324 106 q 393 236 375 179 q 414 346 411 293 q 415 394 415 361 q 401 530 415 472 q 353 592 386 588 q 258 517 289 599 q 226 333 226 435 z "},"p":{"ha":688,"x_min":0,"x_max":688,"o":"m 456 783 q 632 683 576 783 q 688 426 688 582 q 679 304 688 365 q 585 64 661 163 q 383 -35 508 -35 q 272 0 319 -35 l 258 -162 q 256 -229 256 -204 q 265 -365 256 -307 l 0 -390 q 32 -181 17 -353 l 89 458 q 94 515 92 494 q 100 578 96 531 q 104 664 104 626 q 97 746 104 704 l 343 790 l 339 747 q 456 783 392 783 m 461 342 q 469 453 469 399 q 453 571 469 526 q 399 615 436 615 q 343 565 365 615 q 311 433 321 515 l 308 400 l 308 397 q 303 267 303 306 q 315 171 303 204 q 354 138 326 138 q 421 195 393 138 q 461 342 449 253 z "},"q":{"ha":649,"x_min":0,"x_max":649,"o":"m 649 742 l 625 522 l 564 -162 q 558 -287 558 -229 q 564 -365 558 -344 l 306 -390 q 338 -181 322 -353 l 354 6 q 229 -33 299 -33 q 200 -32 210 -33 q 46 71 92 -18 q 0 297 0 160 q 11 444 0 367 q 106 685 29 586 q 307 783 182 783 q 469 689 413 783 l 649 742 m 292 133 q 352 194 329 133 q 382 351 375 256 q 388 482 388 443 q 376 578 388 544 q 336 611 364 611 q 269 553 297 611 q 229 407 242 496 q 222 294 222 344 q 292 133 222 133 z "},"r":{"ha":639,"x_min":0,"x_max":639,"o":"m 432 479 q 422 586 433 554 q 383 618 411 618 q 326 578 353 618 q 286 465 299 539 l 258 158 q 253 33 253 92 q 258 -44 253 -24 l 0 -69 q 32 140 17 -32 l 60 451 q 72 639 72 583 q 60 744 72 703 l 314 789 l 310 740 q 463 797 385 797 q 594 726 553 797 q 639 539 635 654 l 432 479 z "},"s":{"ha":582,"x_min":0,"x_max":582,"o":"m 100 185 q 165 121 125 146 q 239 96 204 96 q 294 135 281 96 q 297 156 297 142 q 275 215 297 181 q 193 325 253 250 l 158 367 q 83 468 108 425 q 57 560 57 511 q 64 608 57 581 q 158 745 85 690 q 357 800 231 800 q 582 650 517 800 l 444 522 q 408 597 432 572 q 360 622 385 622 q 324 605 339 622 q 308 561 308 588 q 343 486 308 533 q 443 364 378 439 q 536 157 536 254 q 518 71 536 117 q 419 -47 489 3 q 254 -97 349 -97 q 103 -67 169 -97 q 0 0 38 -36 l 100 185 z "},"t":{"ha":429,"x_min":0,"x_max":429,"o":"m 15 783 q 140 836 89 789 q 249 999 192 883 l 339 999 l 308 783 l 429 783 l 413 603 q 357 615 382 613 q 285 617 332 617 l 256 404 q 240 229 240 290 q 282 128 240 128 q 320 142 297 128 q 364 178 343 157 l 426 28 q 344 -47 385 -24 q 239 -71 303 -71 q 19 246 19 -71 q 32 414 19 321 l 58 617 l 0 617 l 15 783 z "},"u":{"ha":649,"x_min":0,"x_max":649,"o":"m 589 268 q 579 100 579 144 q 592 -21 579 29 l 335 -69 l 338 -31 q 204 -72 276 -72 q 163 -68 183 -72 q 47 9 93 -56 q 0 217 0 74 q 1 272 0 253 l 19 549 q 21 614 21 567 q 13 749 21 714 l 283 785 q 259 670 271 736 q 244 567 247 604 l 225 325 q 222 261 222 278 q 238 163 222 193 q 283 133 253 133 q 333 165 311 133 q 364 260 354 197 l 390 561 q 396 686 396 628 q 390 764 396 743 l 649 789 q 617 579 632 751 l 589 268 z "},"v":{"ha":696,"x_min":0,"x_max":696,"o":"m 290 786 q 282 636 282 742 l 283 444 l 283 390 l 282 190 q 299 265 289 215 q 313 339 308 314 q 342 485 326 419 q 397 753 401 717 l 696 782 q 642 668 678 753 q 592 540 607 583 l 499 282 q 446 121 474 213 q 401 -35 418 29 l 104 -65 q 97 42 106 -40 q 78 201 88 124 l 68 282 l 35 565 q 17 681 26 635 q 0 739 7 726 l 290 786 z "},"w":{"ha":922,"x_min":0,"x_max":922,"o":"m 304 785 q 286 486 293 681 q 276 232 283 374 l 401 619 l 497 617 l 540 214 q 577 503 567 404 q 588 710 588 603 l 588 760 l 922 782 q 859 617 890 715 q 785 361 828 518 q 685 -65 704 64 l 450 -117 q 415 271 446 -6 q 375 157 396 213 q 337 47 364 125 q 300 -69 310 -31 l 49 -17 q 64 171 64 54 q 56 383 64 250 q 28 610 46 506 q 0 739 11 714 l 304 785 z "},"x":{"ha":747,"x_min":0,"x_max":747,"o":"m 499 364 q 693 15 631 107 l 450 -78 q 367 125 439 -22 q 288 -68 310 18 l 0 -68 q 110 117 33 -21 l 247 363 q 42 713 97 643 l 286 831 q 378 603 311 742 q 450 782 436 718 l 747 782 q 596 542 681 693 l 499 364 z "},"y":{"ha":599,"x_min":0,"x_max":599,"o":"m 599 783 l 575 515 l 546 78 q 448 -281 532 -167 q 225 -396 364 -396 q 117 -365 167 -396 q 35 -296 67 -335 q 0 -240 4 -257 l 119 -94 q 164 -162 129 -129 q 225 -197 199 -194 q 281 -181 263 -199 q 303 -133 299 -162 q 311 -47 308 -103 q 192 -68 253 -74 q 42 22 85 -57 q 0 229 0 100 q 4 325 0 278 l 22 549 q 24 614 24 567 q 15 749 24 714 l 286 785 q 262 670 274 736 q 247 567 250 604 l 228 325 q 222 224 222 247 q 235 133 222 164 q 276 97 247 101 q 328 204 315 92 l 332 258 l 332 264 l 332 264 l 344 451 q 350 586 350 532 q 331 739 350 685 l 599 783 z "},"z":{"ha":606,"x_min":0,"x_max":606,"o":"m 606 783 l 576 581 l 286 147 l 364 151 l 394 153 q 564 175 519 156 l 532 -54 l 0 -71 l 28 129 l 26 129 l 28 131 l 28 132 l 322 564 l 258 560 l 222 558 q 121 553 161 557 q 56 536 81 549 l 88 765 l 606 783 z "},".":{"ha":322,"x_min":42,"x_max":281,"o":"m 150 -68 q 72 -35 103 -68 q 42 46 42 -3 q 81 141 42 101 q 172 181 119 181 q 249 148 218 181 q 281 68 281 115 q 241 -28 281 13 q 150 -68 201 -68 z "},",":{"ha":369,"x_min":42,"x_max":328,"o":"m 328 125 l 154 -175 l 42 -175 l 124 125 l 328 125 z "},":":{"ha":388,"x_min":42,"x_max":346,"o":"m 215 646 q 138 678 168 646 q 107 760 107 711 q 146 855 107 815 q 238 894 185 894 q 315 862 283 894 q 346 782 346 829 q 306 686 346 726 q 215 646 267 646 m 150 -3 q 72 30 103 -3 q 42 111 42 63 q 81 206 42 167 q 172 246 119 246 q 249 213 218 246 q 281 133 281 181 q 241 38 281 78 q 150 -3 201 -3 z "},";":{"ha":438,"x_min":42,"x_max":396,"o":"m 265 646 q 188 678 218 646 q 157 760 157 711 q 196 855 157 815 q 288 894 235 894 q 365 862 333 894 q 396 782 396 829 q 356 686 396 726 q 265 646 317 646 m 328 125 l 154 -175 l 42 -175 l 124 125 l 328 125 z "},"…":{"ha":322,"x_min":42,"x_max":281,"o":"m 172 181 q 249 148 218 181 q 281 68 281 115 q 241 -28 281 13 q 150 -68 201 -68 q 72 -35 103 -68 q 42 46 42 -3 q 81 141 42 101 q 172 181 119 181 z "},"!":{"ha":492,"x_min":42,"x_max":450,"o":"m 282 261 q 200 283 238 283 q 104 261 161 283 l 115 711 l 117 751 q 119 881 119 832 q 108 1015 119 982 l 450 1043 q 425 976 438 1026 q 394 832 413 925 q 383 775 392 814 l 282 261 m 164 -68 q 76 -35 111 -68 q 42 47 42 -1 q 85 141 42 101 q 189 181 129 181 q 276 148 240 181 q 311 67 311 115 q 267 -28 311 13 q 164 -68 222 -68 z "},"¡":{"ha":478,"x_min":42,"x_max":436,"o":"m 314 783 q 401 750 367 783 q 436 668 436 717 q 392 574 436 614 q 289 535 349 535 q 202 567 238 535 q 167 649 167 600 q 211 743 167 703 q 314 783 256 783 m 196 454 q 278 432 240 432 q 374 454 317 432 l 358 18 q 357 -35 358 -10 q 354 -79 356 -60 q 349 -210 349 -168 q 356 -286 349 -265 l 42 -314 q 78 -221 60 -290 q 108 -46 96 -151 l 196 454 z "},"?":{"ha":706,"x_min":42,"x_max":664,"o":"m 42 851 q 170 978 94 929 q 363 1026 246 1026 q 519 983 450 1026 q 626 869 588 939 q 664 725 664 799 q 657 667 664 699 q 594 537 639 588 q 472 425 550 486 q 368 333 404 374 q 319 236 332 293 q 259 260 283 253 q 211 268 235 268 q 147 254 181 268 q 182 395 158 338 q 235 488 206 453 q 310 567 264 524 l 347 604 q 400 711 400 658 q 385 758 400 739 q 349 781 371 776 q 325 783 332 783 q 243 756 282 783 q 179 685 204 729 l 42 851 m 206 -68 q 115 -34 151 -68 q 79 50 79 0 q 122 142 79 103 q 222 181 164 181 q 315 144 278 181 q 349 57 351 108 q 303 -31 344 6 q 206 -68 261 -68 z "},"¿":{"ha":701,"x_min":42,"x_max":660,"o":"m 528 763 q 615 729 581 763 q 650 647 650 696 q 606 553 650 593 q 503 514 563 514 q 416 547 451 514 q 381 628 381 579 q 425 722 381 682 q 528 763 469 763 m 660 -157 q 526 -284 603 -236 q 332 -332 449 -332 q 180 -290 246 -332 q 78 -180 114 -247 q 42 -40 42 -112 q 50 28 42 -6 q 117 158 71 107 q 244 269 164 208 q 351 361 314 321 q 403 458 389 401 q 462 434 438 442 q 510 426 486 426 q 575 440 539 426 q 517 297 560 356 q 400 169 474 239 q 330 101 354 128 q 296 43 306 74 q 285 -17 285 13 q 306 -78 285 -54 q 374 -101 326 -101 q 460 -76 419 -101 q 528 -4 501 -50 l 660 -157 z "},"·":{"ha":353,"x_min":42,"x_max":311,"o":"m 164 383 q 76 417 111 383 q 42 499 42 450 q 85 592 42 553 q 189 632 129 632 q 276 599 240 632 q 311 518 311 567 q 267 424 311 464 q 164 383 222 383 z "},"•":{"ha":458,"x_min":42,"x_max":417,"o":"m 211 335 q 90 381 138 335 q 42 493 42 426 q 70 586 42 543 q 146 655 99 629 q 247 681 193 681 q 367 635 318 681 q 417 522 417 589 q 388 429 417 472 q 312 360 360 386 q 211 335 264 335 z "},"*":{"ha":501,"x_min":42,"x_max":460,"o":"m 421 954 l 460 844 l 357 781 l 436 718 l 360 608 l 296 660 l 281 567 l 164 567 l 182 671 l 81 608 l 42 718 l 143 781 l 64 844 l 140 954 l 219 890 l 238 993 l 353 993 l 338 903 l 421 954 z "},"#":{"ha":1011,"x_min":42,"x_max":969,"o":"m 919 507 q 782 510 894 510 l 747 363 q 894 372 840 365 l 843 174 q 706 176 818 176 l 692 119 q 656 -44 660 -3 l 442 -71 q 510 163 475 14 l 513 172 l 408 171 l 396 171 l 382 117 q 347 -44 350 -12 l 135 -71 q 201 163 167 17 l 201 164 q 42 147 96 157 l 104 364 q 244 354 139 357 l 278 497 q 117 481 171 490 l 179 697 q 321 688 214 690 l 328 717 q 362 877 350 815 q 372 967 374 939 l 606 999 q 559 861 585 950 q 514 689 533 772 l 514 688 l 588 689 l 629 690 q 679 967 682 915 l 913 999 q 868 865 893 951 q 824 696 843 778 q 969 706 917 699 l 919 507 m 554 357 l 588 506 l 485 504 l 472 504 l 438 354 l 513 356 l 554 357 z "},"/":{"ha":792,"x_min":42,"x_max":750,"o":"m 42 -250 q 132 -17 81 -168 l 406 782 q 471 987 439 879 q 506 1133 503 1094 l 750 1165 q 628 856 701 1074 l 336 4 q 301 -98 332 -7 q 265 -224 271 -189 l 42 -250 z "},"\\":{"ha":663,"x_min":42,"x_max":621,"o":"m 396 -224 q 358 -46 394 -190 l 346 4 l 128 856 l 117 899 q 78 1039 94 986 q 42 1124 63 1092 l 275 1133 q 296 988 274 1094 q 344 782 318 882 l 547 -17 q 581 -123 560 -65 q 621 -208 601 -181 l 396 -224 z "},"(":{"ha":801,"x_min":42,"x_max":760,"o":"m 346 -272 q 197 -133 265 -221 q 85 74 128 -46 q 42 333 42 193 q 51 468 42 404 q 151 754 74 613 q 344 1003 229 896 q 586 1156 460 1110 l 760 1100 q 481 858 606 1013 q 318 465 357 704 q 304 307 304 386 q 369 6 304 133 q 540 -200 435 -121 l 346 -272 z "},")":{"ha":801,"x_min":42,"x_max":760,"o":"m 456 1156 q 605 1017 536 1104 q 717 810 674 929 q 760 550 760 690 q 750 415 760 479 q 650 129 728 271 q 457 -119 572 -12 q 215 -272 342 -226 l 42 -217 q 320 25 196 -129 q 483 418 444 179 q 497 576 497 497 q 432 877 497 750 q 261 1083 367 1004 l 456 1156 z "},"{":{"ha":603,"x_min":42,"x_max":561,"o":"m 286 128 q 257 13 257 65 q 299 -92 257 -54 q 410 -161 340 -129 l 276 -274 q 149 -215 203 -260 q 69 -106 96 -169 q 42 28 42 -42 q 53 113 42 68 q 101 210 61 143 q 140 282 128 257 q 153 328 153 307 q 90 375 153 369 l 94 414 l 110 549 q 185 614 185 556 q 158 715 185 647 q 142 767 150 740 q 133 811 135 793 q 172 963 129 888 q 286 1099 214 1038 q 443 1197 358 1160 l 561 1081 q 402 997 458 1044 q 346 876 346 950 q 361 796 346 836 q 390 643 390 715 q 289 456 390 513 q 338 328 338 408 q 286 128 338 240 z "},"}":{"ha":603,"x_min":42,"x_max":561,"o":"m 326 1197 q 453 1138 400 1183 q 534 1029 507 1093 q 561 896 561 965 q 550 811 561 856 q 501 714 542 781 q 463 642 475 667 q 450 596 450 617 q 513 549 450 554 l 508 510 l 493 375 q 418 310 418 368 q 444 208 418 276 q 460 157 453 183 q 469 113 468 131 q 431 -39 474 36 q 317 -175 389 -114 q 160 -274 244 -236 l 42 -157 q 192 -66 131 -117 q 254 64 254 -15 q 242 128 254 93 q 213 281 213 207 q 314 468 213 411 q 264 597 264 514 q 317 796 264 681 q 344 907 344 856 q 193 1085 344 1026 l 326 1197 z "},"[":{"ha":553,"x_min":42,"x_max":511,"o":"m 511 1142 l 494 975 l 393 968 l 290 -101 l 393 -100 l 376 -253 l 42 -267 q 60 -184 51 -243 q 72 -75 68 -125 l 157 804 q 178 1108 175 982 l 511 1142 z "},"]":{"ha":553,"x_min":42,"x_max":511,"o":"m 42 -267 l 58 -100 l 160 -93 l 263 976 l 160 975 l 176 1128 l 511 1142 q 493 1059 501 1118 q 481 950 485 1000 l 396 71 q 375 -233 378 -107 l 42 -267 z "},"-":{"ha":696,"x_min":42,"x_max":654,"o":"m 625 267 q 333 278 469 278 q 42 267 197 278 l 69 489 q 363 479 206 479 q 654 489 518 479 l 625 267 z "},"­":{"ha":696,"x_min":42,"x_max":654,"o":"m 625 267 q 333 278 469 278 q 42 267 197 278 l 69 489 q 363 479 206 479 q 654 489 518 479 l 625 267 z "},"–":{"ha":890,"x_min":42,"x_max":849,"o":"m 819 267 q 431 278 613 278 q 42 267 250 278 l 69 489 q 460 479 253 479 q 849 489 668 479 l 819 267 z "},"—":{"ha":1126,"x_min":42,"x_max":1085,"o":"m 1056 267 q 549 278 786 278 q 42 267 313 278 l 69 489 q 578 479 307 479 q 1085 489 847 479 l 1056 267 z "},"_":{"ha":696,"x_min":42,"x_max":654,"o":"m 625 -318 q 333 -308 489 -308 q 42 -318 178 -308 l 69 -111 q 363 -122 225 -122 q 654 -111 499 -122 l 625 -318 z "},"‚":{"ha":369,"x_min":42,"x_max":328,"o":"m 328 125 l 154 -175 l 42 -175 l 124 125 l 328 125 z "},"„":{"ha":369,"x_min":42,"x_max":328,"o":"m 42 -175 l 124 125 l 328 125 l 154 -175 l 42 -175 z "},"“":{"ha":583,"x_min":42,"x_max":542,"o":"m 42 699 l 188 999 l 300 999 l 232 699 l 42 699 m 283 699 l 429 999 l 542 999 l 474 699 l 283 699 z "},"”":{"ha":625,"x_min":42,"x_max":583,"o":"m 300 999 l 154 699 l 42 699 l 110 999 l 300 999 m 583 999 l 438 699 l 325 699 l 393 999 l 583 999 z "},"‘":{"ha":342,"x_min":42,"x_max":300,"o":"m 42 699 l 188 999 l 300 999 l 232 699 l 42 699 z "},"’":{"ha":342,"x_min":42,"x_max":300,"o":"m 300 999 l 154 699 l 42 699 l 110 999 l 300 999 z "},"«":{"ha":1000,"x_min":42,"x_max":958,"o":"m 285 79 l 42 375 l 338 690 l 579 690 l 282 385 l 526 79 l 285 79 m 664 79 l 421 375 l 717 690 l 958 690 l 661 385 l 906 79 l 664 79 z "},"»":{"ha":997,"x_min":42,"x_max":956,"o":"m 336 690 l 576 375 l 283 79 l 42 79 l 339 385 l 94 690 l 336 690 m 715 690 l 956 375 l 663 79 l 421 79 l 718 385 l 474 690 l 715 690 z "},"‹":{"ha":621,"x_min":42,"x_max":579,"o":"m 285 79 l 42 375 l 338 690 l 579 690 l 282 385 l 526 79 l 285 79 z "},"›":{"ha":618,"x_min":42,"x_max":576,"o":"m 336 690 l 576 375 l 283 79 l 42 79 l 339 385 l 94 690 l 336 690 z "},"\"":{"ha":535,"x_min":42,"x_max":493,"o":"m 233 999 l 208 699 l 42 699 l 71 999 l 233 999 m 493 999 l 468 699 l 301 699 l 331 999 l 493 999 z "},"'":{"ha":275,"x_min":42,"x_max":233,"o":"m 233 999 l 208 699 l 42 699 l 71 999 l 233 999 z "}," ":{"ha":278,"x_min":0,"x_max":0,"o":""},"¢":{"ha":553,"x_min":0,"x_max":581,"o":"m 301 229 q 325 226 318 226 q 417 275 375 226 l 486 132 q 442 88 472 111 q 374 49 411 64 q 379 -57 374 -18 l 167 -79 q 188 46 176 -36 q 51 167 101 79 q 0 389 0 256 q 4 464 0 425 q 81 716 18 614 q 240 858 143 818 q 233 972 243 936 l 453 1000 q 429 872 443 967 q 526 808 489 854 q 581 708 564 761 l 440 593 q 410 656 433 631 q 364 681 388 681 q 274 617 307 681 q 231 465 240 554 q 228 401 228 443 q 247 282 228 326 q 301 229 267 238 z "},"¤":{"ha":813,"x_min":42,"x_max":771,"o":"m 656 319 q 701 269 674 294 l 726 246 l 551 144 q 506 226 542 171 q 382 200 444 200 q 260 228 315 200 q 197 144 214 172 l 42 246 l 67 267 q 124 319 99 293 l 144 340 q 114 467 114 399 q 179 653 114 565 l 178 654 q 129 719 142 704 q 86 757 117 733 l 253 868 q 319 758 260 839 q 432 781 375 781 q 539 760 490 781 q 624 868 610 838 l 771 757 q 720 717 736 732 q 660 654 704 701 q 697 517 697 590 q 640 339 697 424 l 656 319 m 285 482 q 316 403 285 435 q 394 371 347 371 q 485 410 446 371 q 525 501 525 449 q 494 580 525 549 q 417 611 464 611 q 324 573 364 611 q 285 482 285 535 z "},"$":{"ha":679,"x_min":0,"x_max":707,"o":"m 360 715 q 381 660 360 693 q 443 576 403 628 q 517 476 499 506 q 600 226 600 344 q 578 107 600 167 q 516 13 558 56 q 415 -56 474 -29 l 417 -56 q 417 -141 415 -97 q 422 -206 419 -185 l 210 -228 q 232 -86 221 -186 q 92 -38 153 -78 q 0 53 31 1 l 103 233 q 178 156 133 192 q 263 121 224 121 q 326 138 297 121 q 367 194 354 156 q 371 224 371 207 q 257 438 371 307 q 160 569 193 511 q 126 701 126 628 q 142 799 126 751 q 216 921 163 868 q 349 996 269 974 l 349 1038 q 342 1147 349 1119 l 561 1175 q 532 999 549 1135 q 644 935 599 981 q 707 835 689 890 l 561 696 q 521 767 554 736 q 449 799 488 799 q 388 776 415 799 q 360 715 360 754 z "},"€":{"ha":719,"x_min":0,"x_max":747,"o":"m 406 157 q 431 153 417 153 q 483 164 456 153 q 536 197 511 175 l 613 54 q 523 -33 581 4 q 382 -69 465 -69 q 196 13 268 -69 q 103 244 124 94 l 0 244 l 28 401 l 93 401 l 96 454 l 96 458 l 25 458 l 53 615 l 121 615 q 255 888 161 782 q 485 993 349 993 q 526 990 499 993 q 672 918 618 979 q 747 783 726 857 l 589 644 q 556 716 582 688 q 504 749 531 744 q 490 750 500 750 q 371 615 415 750 l 535 615 l 506 458 l 339 458 l 339 457 q 335 401 335 428 l 507 401 l 481 244 l 344 244 q 406 157 364 169 z "},"ƒ":{"ha":739,"x_min":0,"x_max":767,"o":"m 526 990 q 767 842 658 1000 l 640 706 q 604 735 624 724 q 568 749 585 746 q 546 750 560 750 q 490 719 507 750 q 474 615 474 688 l 632 615 l 603 458 l 482 458 l 482 454 q 488 336 488 400 q 426 41 488 151 q 242 -69 365 -69 q 98 -33 158 -69 q 0 54 38 4 l 64 197 q 176 156 117 156 q 199 157 192 156 q 251 202 236 165 q 265 304 265 239 q 256 458 265 364 l 122 458 l 150 615 l 247 615 q 526 990 254 969 z "},"£":{"ha":817,"x_min":42,"x_max":817,"o":"m 503 781 q 421 724 453 768 q 389 615 389 679 l 551 615 l 522 458 l 404 458 q 406 406 406 442 q 313 158 406 222 l 472 164 q 523 164 485 164 q 597 169 561 164 q 657 188 632 175 l 617 -54 l 54 -72 l 82 150 l 81 150 q 160 246 139 190 q 182 376 182 301 q 179 458 182 403 l 42 458 l 69 615 l 174 615 q 175 653 174 640 q 224 819 181 736 q 344 958 268 903 q 519 1013 421 1013 q 705 965 636 1013 q 817 838 774 917 l 658 685 q 606 757 640 729 q 532 785 572 785 q 503 781 518 785 z "},"¥":{"ha":743,"x_min":42,"x_max":785,"o":"m 547 251 l 439 251 l 433 211 l 549 211 l 522 54 l 418 54 l 417 1 q 421 -44 417 -31 l 161 -69 q 189 54 172 -46 l 42 54 l 69 211 l 208 211 l 211 231 l 207 251 l 67 251 l 94 408 l 176 408 l 71 953 l 363 1006 q 349 726 349 931 l 349 610 l 350 408 q 386 557 360 440 q 421 701 411 665 q 486 969 488 936 l 785 999 l 510 408 l 576 408 l 547 251 z "},"+":{"ha":819,"x_min":42,"x_max":778,"o":"m 760 322 q 486 332 638 329 q 474 104 478 217 l 265 90 q 299 332 285 211 q 42 322 222 331 l 58 531 q 317 521 176 524 q 332 769 328 661 l 540 783 q 504 521 517 638 q 778 531 653 524 l 760 322 z "},"−":{"ha":819,"x_min":42,"x_max":778,"o":"m 760 322 q 401 333 568 333 q 42 322 233 333 l 58 531 q 418 521 228 521 q 778 531 611 521 l 760 322 z "},"×":{"ha":776,"x_min":42,"x_max":735,"o":"m 735 664 q 501 392 607 521 q 688 119 569 289 l 518 0 q 375 238 472 79 q 189 0 268 106 l 42 119 q 275 392 146 236 q 89 664 182 533 l 257 785 q 401 546 328 663 q 589 785 488 650 l 735 664 z "},"÷":{"ha":819,"x_min":42,"x_max":778,"o":"m 415 646 q 338 678 368 646 q 307 760 307 711 q 346 855 307 815 q 438 894 385 894 q 515 862 483 894 q 546 782 546 829 q 506 686 546 726 q 415 646 467 646 m 760 322 q 401 333 568 333 q 42 322 233 333 l 58 531 q 418 521 228 521 q 778 531 611 521 l 760 322 m 350 -3 q 272 30 303 -3 q 242 111 242 63 q 281 206 242 167 q 372 246 319 246 q 449 213 418 246 q 481 133 481 181 q 441 38 481 78 q 350 -3 401 -3 z "},"=":{"ha":844,"x_min":42,"x_max":803,"o":"m 786 469 q 428 481 594 481 q 68 469 260 481 l 83 678 q 443 668 253 668 q 803 678 636 668 l 786 469 m 760 167 q 401 178 568 178 q 42 167 233 178 l 57 375 q 417 365 226 365 q 776 375 610 365 l 760 167 z "},"≠":{"ha":844,"x_min":42,"x_max":803,"o":"m 786 469 q 597 478 692 476 l 544 365 q 776 375 696 371 l 760 167 q 454 176 582 176 l 413 90 l 204 90 l 244 175 q 42 167 144 174 l 57 375 q 336 365 181 368 l 390 479 q 68 469 256 479 l 83 678 q 417 668 239 668 l 481 668 l 529 769 l 738 769 l 692 672 q 803 678 767 675 l 786 469 z "},">":{"ha":797,"x_min":42,"x_max":756,"o":"m 736 321 l 42 114 l 63 336 l 514 425 l 79 515 l 94 724 l 756 515 l 736 321 z "},"<":{"ha":797,"x_min":42,"x_max":756,"o":"m 61 517 l 756 724 l 735 501 l 283 413 l 718 336 l 703 114 l 42 322 l 61 517 z "},"≥":{"ha":810,"x_min":42,"x_max":768,"o":"m 750 456 l 57 288 l 74 469 l 513 535 l 88 614 l 100 797 l 768 614 l 750 456 m 722 64 q 382 75 542 75 q 42 64 224 75 l 56 247 q 396 238 215 238 q 736 247 579 238 l 722 64 z "},"≤":{"ha":874,"x_min":42,"x_max":832,"o":"m 131 621 l 832 789 l 804 607 l 364 542 l 785 463 l 761 279 l 104 463 l 131 621 m 67 186 q 407 176 226 176 q 747 186 590 176 l 722 3 q 382 14 542 14 q 42 3 224 14 l 67 186 z "},"±":{"ha":878,"x_min":42,"x_max":836,"o":"m 575 585 q 836 594 719 588 l 818 386 q 554 396 701 393 l 543 286 l 335 272 l 347 396 q 100 386 263 394 l 117 594 q 368 585 282 586 l 386 756 l 594 769 l 575 585 m 58 194 q 418 185 228 185 q 778 194 611 185 l 760 0 q 401 11 568 11 q 42 0 233 11 l 58 194 z "},"≈":{"ha":817,"x_min":42,"x_max":775,"o":"m 47 433 q 131 630 72 563 q 276 697 189 697 q 371 679 329 697 q 463 629 413 661 q 498 608 481 617 q 528 597 515 599 q 583 615 558 594 q 617 678 607 635 l 775 678 q 688 492 754 561 q 533 422 621 422 q 467 434 496 422 q 401 469 439 446 q 335 505 364 493 q 271 517 307 517 q 241 500 251 517 q 223 463 231 483 q 213 433 215 442 l 47 433 m 42 126 q 125 323 67 256 q 271 390 183 390 q 365 372 324 390 q 457 322 407 354 q 492 301 475 310 q 522 290 510 292 q 577 308 553 288 q 613 371 601 328 l 769 371 q 683 185 750 254 q 528 115 615 115 q 462 127 490 115 q 396 163 433 139 q 330 198 358 186 q 265 210 301 210 q 235 193 246 210 q 217 156 225 176 q 207 126 210 135 l 42 126 z "},"~":{"ha":811,"x_min":42,"x_max":769,"o":"m 42 281 q 125 477 67 410 q 271 544 183 544 q 365 526 324 544 q 457 476 407 508 q 492 455 475 464 q 522 444 510 446 q 577 462 553 442 q 611 525 601 482 l 769 525 q 682 339 749 408 q 528 269 615 269 q 462 281 490 269 q 396 317 433 293 q 330 352 358 340 q 265 364 301 364 q 235 347 246 364 q 217 310 225 331 q 207 281 210 289 l 42 281 z "},"¬":{"ha":828,"x_min":42,"x_max":786,"o":"m 786 594 l 749 238 l 540 238 l 556 386 l 42 386 l 58 594 l 786 594 z "},"^":{"ha":442,"x_min":42,"x_max":400,"o":"m 350 999 l 400 629 l 250 629 l 253 825 l 192 629 l 42 629 l 203 1000 l 350 999 z "},"∞":{"ha":1194,"x_min":42,"x_max":1157,"o":"m 1153 469 q 1122 324 1157 385 q 1028 229 1086 263 q 906 190 969 196 q 766 223 843 185 q 621 322 689 261 q 308 171 458 171 q 169 210 231 171 q 75 310 108 250 q 42 429 42 369 q 75 554 42 496 q 161 652 108 613 q 272 707 214 692 q 354 718 313 718 q 632 601 490 718 l 657 579 q 921 710 797 710 q 1041 671 989 710 q 1122 575 1093 632 q 1153 469 1150 518 m 869 388 q 939 409 915 383 q 963 467 963 435 q 956 494 963 483 q 929 524 943 513 q 893 535 915 535 q 761 472 844 535 q 869 388 838 390 m 249 393 q 276 369 256 381 q 326 358 296 358 q 506 435 401 358 q 413 497 451 482 q 333 511 374 511 q 264 486 289 511 q 239 428 239 461 q 249 393 239 410 z "},"∫":{"ha":506,"x_min":42,"x_max":506,"o":"m 489 749 q 442 761 460 761 q 401 739 415 761 q 382 671 388 717 q 381 618 381 658 q 382 533 381 565 l 383 399 q 363 92 383 225 q 283 -101 342 -42 q 177 -176 233 -153 q 43 -194 121 -199 l 42 32 l 58 31 q 140 88 124 31 q 168 311 168 176 q 165 436 168 353 q 161 563 161 501 q 181 757 161 671 q 254 913 200 843 q 333 975 283 953 q 446 997 382 997 q 506 992 464 997 l 489 749 z "},"∏":{"ha":750,"x_min":42,"x_max":750,"o":"m 732 790 l 639 790 q 563 -161 590 265 l 354 -203 q 438 790 408 361 l 331 790 q 254 -161 282 267 l 46 -203 q 129 790 100 361 l 42 790 l 58 999 l 750 999 l 732 790 z "},"∑":{"ha":569,"x_min":42,"x_max":528,"o":"m 503 790 q 263 800 390 803 l 426 449 l 426 349 l 251 6 q 493 15 378 3 l 468 -193 q 256 -183 369 -183 q 42 -193 140 -183 l 64 8 l 64 10 l 65 11 l 65 15 l 67 15 l 257 389 l 75 789 l 76 792 l 100 999 q 314 989 201 989 q 528 999 429 989 l 503 790 z "},"√":{"ha":761,"x_min":42,"x_max":1108,"o":"m 860 1250 l 1108 1250 l 1056 1056 l 801 1056 l 429 -201 l 219 -215 l 42 471 l 250 457 l 322 85 l 653 1258 l 860 1250 z "},"µ":{"ha":792,"x_min":42,"x_max":750,"o":"m 690 268 q 681 100 681 144 q 693 -21 681 29 l 436 -69 l 440 -22 q 290 -69 368 -68 q 283 -207 283 -142 q 299 -358 283 -303 l 42 -407 l 68 -133 l 101 254 l 103 272 l 121 549 q 122 614 122 567 q 114 749 122 714 l 385 785 q 360 670 372 736 q 346 567 349 604 l 326 325 q 324 261 324 278 q 339 163 324 193 q 385 133 354 133 q 434 165 413 133 q 465 260 456 197 l 492 561 q 497 686 497 628 q 492 764 497 743 l 750 789 q 718 579 733 751 l 690 268 z "},"∂":{"ha":651,"x_min":-6,"x_max":651,"o":"m 269 1036 q 560 853 468 1006 q 651 481 651 700 q 603 190 651 315 q 473 -3 556 65 q 288 -71 390 -71 q 130 -24 197 -71 q 28 101 63 24 q 0 267 -6 179 q 77 513 8 417 q 269 626 146 610 q 303 629 292 629 q 406 603 357 629 q 347 751 389 690 q 233 829 304 813 l 269 1036 m 308 136 q 360 173 338 136 q 397 274 383 210 q 403 349 403 308 q 313 475 403 485 q 253 417 275 471 q 232 293 232 363 q 252 182 232 228 q 308 136 272 136 z "},"%":{"ha":1228,"x_min":42,"x_max":1186,"o":"m 247 374 q 98 444 154 374 q 42 636 42 515 q 47 715 42 678 q 131 967 71 874 q 332 1051 192 1061 q 467 974 419 1046 q 515 776 515 901 q 513 714 515 758 q 434 474 497 575 q 247 374 371 374 m 219 -100 q 285 15 249 -53 q 346 133 321 83 l 594 639 q 694 849 647 746 q 750 990 740 951 l 999 1022 q 918 885 967 975 q 828 713 869 796 l 554 154 l 526 99 q 446 -74 454 -50 l 219 -100 m 244 504 q 306 549 286 497 q 343 713 326 600 q 350 793 350 765 q 301 886 350 886 q 247 840 267 886 q 215 717 228 794 q 206 608 206 649 q 215 535 206 563 q 244 504 225 507 m 919 -69 q 770 1 826 -69 q 714 193 714 72 q 719 272 714 235 q 803 524 743 431 q 1004 608 864 618 q 1139 532 1092 603 q 1186 338 1186 461 q 1183 271 1186 294 q 1106 32 1169 133 q 919 -69 1043 -69 m 917 61 q 978 106 958 54 q 1015 269 999 157 q 1022 350 1022 322 q 974 443 1022 443 q 919 397 939 443 q 888 274 900 351 q 878 165 878 206 q 888 92 878 119 q 917 61 897 64 z "},"‰":{"ha":1778,"x_min":42,"x_max":1736,"o":"m 247 374 q 98 444 154 374 q 42 636 42 515 q 47 715 42 678 q 131 967 71 874 q 332 1051 192 1061 q 467 974 419 1046 q 515 776 515 901 q 513 714 515 758 q 434 474 497 575 q 247 374 371 374 m 219 -100 q 285 15 249 -53 q 346 133 321 83 l 594 639 q 694 849 647 746 q 750 990 740 951 l 999 1022 q 918 885 967 975 q 828 713 869 796 l 554 154 l 526 99 q 446 -74 454 -50 l 219 -100 m 244 504 q 306 549 286 497 q 343 713 326 600 q 350 793 350 765 q 301 886 350 886 q 247 840 267 886 q 215 717 228 794 q 206 608 206 649 q 215 535 206 563 q 244 504 225 507 m 919 -69 q 770 1 826 -69 q 714 193 714 72 q 719 272 714 235 q 803 524 743 431 q 1004 608 864 618 q 1139 532 1092 603 q 1186 338 1186 461 q 1183 271 1186 294 q 1106 32 1169 133 q 919 -69 1043 -69 m 1469 -69 q 1320 1 1376 -69 q 1264 193 1264 72 q 1269 272 1264 235 q 1353 524 1293 431 q 1554 608 1414 618 q 1689 532 1642 603 q 1736 338 1736 461 q 1733 271 1736 294 q 1656 32 1719 133 q 1469 -69 1593 -69 m 917 61 q 978 106 958 54 q 1015 269 999 157 q 1022 350 1022 322 q 974 443 1022 443 q 919 397 939 443 q 888 274 900 351 q 878 165 878 206 q 888 92 878 119 q 917 61 897 64 m 1467 61 q 1528 106 1508 54 q 1565 269 1549 157 q 1572 350 1572 322 q 1524 443 1572 443 q 1469 397 1489 443 q 1438 274 1450 351 q 1428 165 1428 206 q 1438 92 1428 119 q 1467 61 1447 64 z "},"◊":{"ha":550,"x_min":42,"x_max":508,"o":"m 176 -69 l 42 357 l 251 783 l 400 783 l 508 357 l 325 -69 l 176 -69 m 301 593 l 208 357 l 260 121 l 350 357 l 301 593 z "},"@":{"ha":1154,"x_min":42,"x_max":1113,"o":"m 629 929 q 901 859 793 929 q 1061 676 1010 789 q 1113 435 1113 564 q 1072 206 1113 314 q 955 31 1031 97 q 783 -36 879 -36 q 669 8 710 -36 q 617 124 629 51 q 469 51 549 51 q 436 54 447 51 q 355 117 383 65 q 326 242 326 168 q 349 375 326 301 q 435 517 375 460 q 563 575 494 575 q 597 571 581 575 q 647 542 625 565 l 650 575 l 839 589 q 790 401 811 501 q 769 232 769 300 q 810 142 769 142 q 862 179 836 142 q 903 278 888 217 q 919 407 919 340 q 846 635 919 542 q 610 728 772 729 q 424 665 506 728 q 299 503 343 603 q 256 296 256 403 q 298 106 256 193 q 429 -35 340 18 q 650 -89 518 -89 q 758 -81 700 -89 l 729 -267 q 617 -274 664 -274 q 296 -198 425 -274 q 104 2 167 -122 q 42 274 42 126 q 114 588 42 436 q 320 834 186 739 q 629 929 454 929 m 522 207 q 533 206 526 206 q 578 236 558 206 q 611 308 599 267 q 626 392 626 356 q 594 442 626 442 q 547 412 568 442 q 513 336 525 382 q 503 261 503 303 q 522 207 503 213 z "},"&":{"ha":763,"x_min":42,"x_max":721,"o":"m 496 683 q 501 747 501 733 q 484 808 501 790 q 421 825 467 825 q 342 793 369 825 q 315 714 315 761 q 334 638 315 675 q 390 575 353 600 q 476 549 426 550 l 461 376 q 367 349 408 374 q 305 290 326 325 q 283 221 283 254 q 307 165 283 186 q 376 143 331 143 q 435 157 410 143 q 485 197 460 171 l 636 197 q 558 41 617 111 q 417 -57 500 -29 q 417 -142 415 -99 q 422 -206 419 -185 l 210 -228 q 233 -64 225 -167 q 90 31 138 -40 q 42 188 42 103 q 43 218 42 208 q 98 361 53 301 q 235 461 143 421 q 122 552 157 497 q 86 681 86 607 q 116 822 86 754 q 206 939 146 890 q 349 1006 265 988 q 342 1147 351 1111 l 561 1175 q 533 1003 546 1119 q 676 913 631 979 q 721 758 721 846 q 713 683 721 721 l 496 683 z "}}}
